<svg width="99" height="97" viewBox="0 0 99 97" fill="none" xmlns="http://www.w3.org/2000/svg">
<g id="Group">
<path id="Vector" fill-rule="evenodd" clip-rule="evenodd" d="M49.1266 92.0706C73.545 92.0706 93.3406 72.5444 93.3406 48.4582C93.3406 24.3721 73.545 4.84582 49.1266 4.84582C24.7082 4.84582 4.91266 24.3721 4.91266 48.4582C4.91266 72.5444 24.7082 92.0706 49.1266 92.0706ZM49.1266 96.9165C76.2593 96.9165 98.2532 75.2217 98.2532 48.4582C98.2532 21.6948 76.2593 0 49.1266 0C21.994 0 0 21.6948 0 48.4582C0 75.2217 21.994 96.9165 49.1266 96.9165Z" fill="#FFE4E4"/>
<path id="Vector_2" d="M19.6506 76.6367C19.6506 74.1338 21.5469 72.0186 24.072 71.7424C43.0226 69.6733 55.3166 69.8598 74.2254 71.7885C75.1696 71.8863 76.0646 72.2532 76.8009 72.8444C77.5372 73.4357 78.083 74.2256 78.3716 75.1178C78.6603 76.01 78.6793 76.9658 78.4263 77.8685C78.1733 78.7711 77.6593 79.5816 76.947 80.2008C54.6312 99.3879 41.878 99.1238 21.2227 80.2202C20.2156 79.2995 19.6506 77.9911 19.6506 76.6391V76.6367Z" fill="#FFE4E4"/>
<path id="Vector_3" fill-rule="evenodd" clip-rule="evenodd" d="M73.9724 74.1968C55.2134 72.2827 43.0964 72.1034 24.3398 74.1508C23.7224 74.2218 23.1532 74.5149 22.7412 74.974C22.3293 75.4331 22.1034 76.026 22.107 76.6391C22.107 77.3321 22.3993 77.9887 22.893 78.4442C33.131 87.8112 40.8881 92.044 48.4708 92.0706C56.0805 92.0973 64.2552 87.8984 75.3332 78.3763C75.6852 78.0674 75.9385 77.6642 76.0625 77.2158C76.1865 76.7674 76.1758 76.2932 76.0316 75.8508C75.8875 75.4083 75.6161 75.0167 75.2506 74.7235C74.885 74.4303 74.441 74.2482 73.9724 74.1992V74.1968ZM23.8019 69.334C42.9514 67.2431 55.4247 67.432 74.4809 69.3776C75.9014 69.5239 77.2479 70.0755 78.3554 70.965C79.463 71.8544 80.2836 73.0431 80.7168 74.3855C81.1501 75.7279 81.1771 77.1658 80.7946 78.5231C80.4121 79.8805 79.6367 81.0983 78.5633 82.0277C67.3256 91.6902 57.967 96.9528 48.4561 96.9165C38.9181 96.8825 29.9722 91.5303 19.5549 81.9962C18.809 81.3109 18.2144 80.4813 17.8083 79.5591C17.4021 78.637 17.1931 77.6421 17.1944 76.6367C17.1908 74.8302 17.863 73.086 19.0822 71.738C20.3014 70.3901 21.982 69.5333 23.8019 69.3316V69.334Z" fill="#FFE4E4"/>
<path id="Vector_4" d="M68.7773 38.7666C68.7773 43.9073 66.7069 48.8376 63.0217 52.4726C59.3365 56.1077 54.3383 58.1499 49.1266 58.1499C43.9149 58.1499 38.9167 56.1077 35.2315 52.4726C31.5463 48.8376 29.476 43.9073 29.476 38.7666C29.476 33.6258 31.5463 28.6956 35.2315 25.0605C38.9167 21.4254 43.9149 19.3833 49.1266 19.3833C54.3383 19.3833 59.3365 21.4254 63.0217 25.0605C66.7069 28.6956 68.7773 33.6258 68.7773 38.7666Z" fill="#FFE4E4"/>
<path id="Vector_5" fill-rule="evenodd" clip-rule="evenodd" d="M49.1266 53.304C53.0354 53.304 56.784 51.7724 59.5479 49.0461C62.3118 46.3198 63.8646 42.6222 63.8646 38.7666C63.8646 34.911 62.3118 31.2133 59.5479 28.487C56.784 25.7607 53.0354 24.2291 49.1266 24.2291C45.2178 24.2291 41.4692 25.7607 38.7053 28.487C35.9414 31.2133 34.3886 34.911 34.3886 38.7666C34.3886 42.6222 35.9414 46.3198 38.7053 49.0461C41.4692 51.7724 45.2178 53.304 49.1266 53.304ZM49.1266 58.1499C54.3383 58.1499 59.3365 56.1077 63.0217 52.4726C66.7069 48.8376 68.7773 43.9073 68.7773 38.7666C68.7773 33.6258 66.7069 28.6956 63.0217 25.0605C59.3365 21.4254 54.3383 19.3833 49.1266 19.3833C43.9149 19.3833 38.9167 21.4254 35.2315 25.0605C31.5463 28.6956 29.476 33.6258 29.476 38.7666C29.476 43.9073 31.5463 48.8376 35.2315 52.4726C38.9167 56.1077 43.9149 58.1499 49.1266 58.1499Z" fill="#FFE4E4"/>
</g>
</svg>
