<?xml version="1.0" encoding="utf-8"?>
<!-- Generator: Adobe Illustrator 27.7.0, SVG Export Plug-In . SVG Version: 6.00 Build 0)  -->
<svg version="1.1" id="Layer_1" xmlns="http://www.w3.org/2000/svg" xmlns:xlink="http://www.w3.org/1999/xlink" x="0px" y="0px"
	 viewBox="0 0 626 165.9" style="enable-background:new 0 0 626 165.9;" xml:space="preserve">
<style type="text/css">
	.st0{fill:#37A000;}
	.st1{fill:#020202;}
</style>
<path class="st0" d="M33.2,107.5c-5.3,0.1-10.5-0.9-15.4-3c-4.4-1.9-8.3-4.9-11.3-8.7c-3-3.9-4.9-8.5-5.6-13.4l15.2-2.2
	c0.9,4.1,3.2,7.7,6.6,10.2c3.3,2.4,7.3,3.6,11.4,3.6c2.4,0,4.7-0.4,6.9-1.1c2.1-0.6,4-1.8,5.5-3.3c1.4-1.4,2.2-3.4,2.2-5.4
	c0-0.8-0.1-1.5-0.3-2.3c-0.2-0.8-0.6-1.5-1.2-2.1c-0.7-0.7-1.4-1.3-2.3-1.8c-1.2-0.7-2.4-1.2-3.7-1.6l-20-5.9
	c-1.5-0.4-3.2-1-5.2-1.8c-2.1-0.8-4-2-5.7-3.4c-1.9-1.6-3.5-3.5-4.6-5.8c-1.3-2.8-2-6-1.8-9.1c0-5.2,1.3-9.5,3.9-12.9
	c2.7-3.5,6.3-6.1,10.4-7.6c4.6-1.7,9.5-2.6,14.4-2.5c4.9,0,9.7,0.9,14.2,2.7c4.1,1.7,7.6,4.3,10.5,7.6c2.9,3.6,5,7.8,6.1,12.3
	l-15.7,2.7c-0.5-2.3-1.6-4.5-3.2-6.3c-1.5-1.7-3.4-3-5.5-3.9c-2.1-0.9-4.4-1.4-6.6-1.5C30.3,41,28.1,41.3,26,42
	c-1.9,0.6-3.5,1.6-4.9,3c-1.2,1.3-1.9,2.9-1.9,4.7c-0.1,1.5,0.5,3,1.5,4.1c1.1,1.1,2.4,2,3.9,2.5c1.6,0.6,3.2,1.2,4.8,1.6l13.3,3.6
	c2,0.5,4.2,1.2,6.6,2.1c2.5,0.9,4.8,2.1,7,3.6c2.3,1.6,4.2,3.7,5.5,6.1c1.5,3,2.3,6.3,2.1,9.7c0.1,3.8-0.8,7.5-2.6,10.8
	c-1.7,3.1-4.1,5.7-7,7.6c-3,2.1-6.4,3.6-9.9,4.5C40.8,107,37,107.5,33.2,107.5z"/>
<path class="st0" d="M75.7,131.5V48.2h12.8v39.5h1.8v43.8H75.7z M104.1,107.5c-5.7,0-10.5-1.3-14.4-4c-3.9-2.7-6.9-6.5-8.7-10.9
	c-2-4.9-3-10.2-2.9-15.5C78,71.7,79,66.4,81,61.5c1.7-4.4,4.7-8.1,8.5-10.9c4.1-2.8,8.9-4.2,13.8-4c5.1-0.1,10.1,1.3,14.4,4
	c4.1,2.7,7.4,6.4,9.5,10.8c2.3,4.9,3.5,10.2,3.4,15.6c0.1,5.4-1.1,10.7-3.3,15.5c-2.1,4.4-5.3,8.2-9.3,10.9
	C113.9,106.2,109,107.6,104.1,107.5L104.1,107.5z M101.7,94.6c2.8,0.1,5.5-0.7,7.7-2.3c2.1-1.6,3.6-3.8,4.4-6.3
	c1-2.8,1.5-5.8,1.4-8.8c0-3-0.5-6-1.5-8.8c-0.9-2.5-2.5-4.7-4.6-6.4c-2.3-1.7-5.1-2.5-8-2.4c-2.6-0.1-5.2,0.6-7.3,2.2
	c-1.9,1.6-3.4,3.7-4.1,6.1c-0.9,3-1.3,6.1-1.3,9.2c-0.1,3.1,0.4,6.2,1.3,9.2c0.7,2.4,2.2,4.6,4.2,6.1C96.3,93.9,99,94.7,101.7,94.6
	L101.7,94.6z"/>
<path class="st0" d="M169.2,107.5c-5.5,0.1-10.8-1.2-15.6-3.8c-4.4-2.5-8.1-6.1-10.6-10.5c-2.6-4.7-3.9-10-3.8-15.3
	c-0.1-5.7,1.2-11.4,3.8-16.5c2.3-4.5,5.9-8.3,10.3-10.9c4.6-2.6,9.8-4,15.1-3.9c5.5-0.2,10.8,1.3,15.4,4.3c4.3,2.9,7.6,7.1,9.4,12
	c2,5.2,2.7,11.2,2.1,18.2H181v-5.3c0-5.9-0.9-10.1-2.8-12.7c-1.9-2.6-4.9-3.9-9.2-3.9c-4.9,0-8.6,1.5-10.9,4.5
	c-2.3,3-3.5,7.5-3.5,13.3c0,5.4,1.2,9.5,3.5,12.5c2.3,2.9,5.8,4.4,10.3,4.4c2.6,0.1,5.1-0.6,7.3-1.9c2.1-1.3,3.7-3.2,4.6-5.4
	l14.5,4.2c-2,5.1-5.6,9.4-10.3,12.2C180,106,174.7,107.5,169.2,107.5z M150.1,81.1V70.3h38.2v10.8H150.1z"/>
<path class="st0" d="M222.3,107.5c-3.6,0.1-7.3-0.7-10.5-2.4c-2.7-1.5-5-3.7-6.5-6.4c-1.5-2.7-2.2-5.7-2.2-8.8c0-2.5,0.4-5,1.2-7.3
	c0.8-2.2,2.2-4.2,4-5.8c2.2-1.9,4.7-3.3,7.4-4.2c2.5-0.9,5-1.6,7.6-2.1c3-0.6,6.3-1.2,10-1.7l12.3-1.8l-5.2,2.9
	c0-3.4-0.8-5.9-2.4-7.5c-1.6-1.6-4.4-2.4-8.2-2.4c-2.3,0-4.6,0.6-6.7,1.5c-2.3,1.1-4.1,3.1-4.9,5.5l-13.1-4.2
	c1.4-4.7,4.3-8.8,8.2-11.6c4-3,9.5-4.5,16.4-4.5c4.6-0.1,9.2,0.7,13.6,2.3c3.9,1.5,7.1,4.4,9,8.1c1.1,2,1.8,4.2,2,6.4
	c0.2,2.4,0.3,4.8,0.3,7.2v35.3H242V94.1l1.8,2.4c-2.3,3.5-5.5,6.3-9.1,8.4C231.4,106.6,227.3,107.5,222.3,107.5z M225.4,96.1
	c2.3,0.1,4.6-0.4,6.8-1.4c1.6-0.8,3.1-1.9,4.4-3.2c0.9-0.9,1.6-1.9,2.2-3c0.8-1.7,1.2-3.6,1.3-5.5c0.1-2.1,0.2-3.8,0.2-5.2l4.3,1.1
	c-4.3,0.7-7.8,1.2-10.5,1.7c-2.7,0.5-4.8,0.9-6.5,1.3c-1.5,0.3-2.9,0.8-4.3,1.3c-1.2,0.5-2.4,1.1-3.4,1.8c-0.8,0.6-1.5,1.3-1.9,2.2
	c-0.4,0.8-0.6,1.7-0.6,2.6c0,1.2,0.3,2.4,1,3.4c0.7,1,1.7,1.7,2.8,2.2C222.4,95.8,223.9,96.1,225.4,96.1z"/>
<path class="st0" d="M268.4,105.9l0.1-76.9h14.7v47l19.5-27.8h17.9l-20.8,28.8l22.2,28.8h-18.9l-20-27.8v27.8H268.4z"/>
<path d="M337.6,105.8l0.1-76.9h14.5l-0.1,63.3h33.1v13.6H337.6z"/>
<path d="M497.7,107.6c-4.9,0.1-9.8-1.3-13.9-4c-4-2.7-7.2-6.5-9.3-10.9c-2.3-4.9-3.4-10.2-3.3-15.5c-0.1-5.4,1.1-10.8,3.4-15.7
	c2.1-4.4,5.4-8.1,9.5-10.8c4.3-2.7,9.3-4.1,14.4-3.9c4.9-0.2,9.8,1.2,13.8,4c3.8,2.8,6.7,6.5,8.5,10.9c2,4.9,3,10.2,2.9,15.5
	c0.1,5.3-0.9,10.6-2.9,15.5c-1.8,4.4-4.8,8.2-8.7,10.9C508.3,106.3,503.5,107.6,497.7,107.6z M499,133.2c-3.2,0-6.3-0.5-9.3-1.6
	c-2.9-1-5.5-2.5-7.9-4.4c-2.3-1.8-4.2-4-5.7-6.6l13.5-6.5c0.9,1.7,2.3,3,4,3.9c1.7,0.9,3.7,1.4,5.6,1.3c2.1,0,4.2-0.4,6.1-1.1
	c1.8-0.6,3.4-1.8,4.6-3.2c1.2-1.5,1.8-3.4,1.6-5.4V93h1.8l0.1-44.6h12.7L526,110c0,1.4-0.1,2.8-0.2,4c-0.1,1.3-0.4,2.5-0.7,3.8
	c-0.8,3.3-2.6,6.4-5.2,8.7c-2.7,2.4-5.8,4.1-9.2,5.1C506.9,132.7,503,133.2,499,133.2z M500.1,94.7c2.8,0.1,5.5-0.6,7.8-2.2
	c2-1.6,3.5-3.7,4.2-6.1c0.9-3,1.3-6.1,1.3-9.2c0.1-3.1-0.4-6.2-1.3-9.2c-0.7-2.4-2.1-4.6-4.1-6.1c-2.1-1.5-4.7-2.3-7.3-2.2
	c-2.9-0.1-5.7,0.7-8,2.4c-2.1,1.6-3.7,3.8-4.6,6.4c-1,2.8-1.5,5.8-1.5,8.8c0,3,0.5,6,1.5,8.8c0.8,2.5,2.4,4.7,4.4,6.3
	C494.6,93.9,497.3,94.8,500.1,94.7z"/>
<path d="M542,106.1l0.1-57.7h14.5l-0.1,57.7H542z M542.1,40.4V27.6h14.5v12.8L542.1,40.4z"/>
<path d="M598,107.7c-5.4,0.2-10.7-1.2-15.4-4c-4.2-2.6-7.6-6.4-9.8-10.9c-2.3-4.8-3.5-10.2-3.4-15.5c-0.1-5.4,1.1-10.8,3.6-15.7
	c2.3-4.5,5.7-8.2,10-10.8c4.6-2.7,9.9-4.1,15.3-3.9c6.8,0,12.5,1.7,17.1,5.2c4.6,3.4,7.7,8.4,8.8,14l-14.5,3.8
	c-0.7-2.7-2.3-5.2-4.5-7c-2-1.6-4.6-2.5-7.2-2.5c-2.7-0.1-5.3,0.7-7.5,2.2c-2,1.5-3.5,3.6-4.3,6c-1,2.8-1.4,5.7-1.4,8.6
	c0,5,1.1,9.1,3.3,12.2s5.5,4.7,9.9,4.7c3.3,0,5.8-0.7,7.5-2.2c1.9-1.7,3.2-4,3.8-6.4l14.8,3.1c-1.3,5.7-4.6,10.7-9.3,14.1
	C610.3,106,604.7,107.7,598,107.7z"/>
<path class="st1" d="M430.9,22.5c0,2.9,0,5.7,0,8.6c0,0.7-0.2,0.9-0.9,0.9c-1.1-0.1-2.2,0-3.3,0c-2.3,0-4.2,1.9-4.2,4.2
	c0,2.3,1.9,4.2,4.2,4.2l0,0c1,0,2.1,0,3.2,0c0.7,0,1,0.2,1,0.9c0,2.9,0,5.8,0,8.7c0,0.7,0.2,1,0.9,1c2.2,0,4.5,0,6.7,0
	c0.6,0,0.8-0.2,0.8-0.8c0.3-4.6,4.3-8.2,8.9-7.9c4.2,0.3,7.6,3.6,7.9,7.8c0.1,0.8,0.4,0.9,1,0.8c3.5,0,7,0,10.5,0
	c0.9,0,1.1,0.2,1.1,1.1c0.2,14.5-5.6,26.1-17,34.9c-1.9,1.4-3.7,3-5.5,4.5c-0.5,0.3-0.8,0.9-0.7,1.4c0,0.5,0,1.1,0,1.6
	c-0.4,1.8,0.4,3.6,1.9,4.5c3.7,2.7,2.9,8.2-1.2,10.2c-0.9,0.5-1.1,0.9-0.8,1.8c0.5,2.6-0.8,5.3-3.2,6.5c-0.7,0.3-1.2,0.9-1.2,1.6
	c-1.6,8-9.3,13.2-17.3,11.6c-5.9-1.2-10.5-5.8-11.6-11.7c-0.1-0.6-0.4-1.1-1-1.4c-2.7-1.2-4.1-4.3-3.3-7.1c0.1-0.7-0.1-0.9-0.6-1.1
	c-3.2-1.3-4.6-5-3.3-8.2c0.6-1.4,1.7-2.5,3-3.2c0.4-0.2,0.7-0.6,0.7-1.1c0.2-4.8,0.2-4.8-3.6-7.8c-4.4-3.6-8.8-7.1-12.1-11.8
	c-15.2-21-6.3-51.6,17.8-61.3c6.6-2.7,13.4-3.3,20.4-3.1c0.7,0,0.8,0.3,0.7,0.9C430.9,16.7,430.9,19.6,430.9,22.5z M397.2,55.2
	c-2.5,0-4.9,0.1-7.4,0c-1,0-1.1,0.3-1,1.2c0.7,10.2,5.7,19.6,13.6,25.9c2.9,2.4,5.8,4.8,8.7,7.1c0.5,0.4,0.9,1,0.8,1.7
	c-0.1,1.8,0,3.6,0,5.4c0,0.7,0.2,0.9,0.9,0.9c4.4,0,8.7,0,13,0c0.7,0,0.9-0.2,0.9-0.9c0-5,0-10.1,0-15.2c0-0.6,0-0.8-0.7-0.9
	c-4.6-0.6-7.7-4-7.7-8.4c0-4.4,3.3-8,7.7-8.4c0.6-0.1,0.8-0.3,0.8-0.9c0-2.2,0-4.5,0-6.7c0-0.8-0.2-0.9-1-0.9c-2.7,0-5.4,0-8,0
	c-1.2,0-2.8,0.4-3.4-0.2s-0.2-2.3-0.2-3.5c0-0.2,0-0.3,0-0.5c0-2.3-1.9-4.2-4.2-4.2c-2.3,0-4.2,1.9-4.2,4.2c0,1.1-0.1,2.3,0,3.4
	c0,0.7-0.2,0.9-0.9,0.9C402.2,55.1,399.7,55.2,397.2,55.2z M430.9,86.8c0,3.2,0,6.4,0,9.6c0,0.7,0.1,1,0.9,1c2.9,0,5.8,0,8.7,0
	c0.7,0,1-0.2,1-0.9c-0.1-1.8,0-3.5,0-5.3c-0.1-0.7,0.3-1.5,0.9-1.9c3-2.4,5.9-4.8,8.8-7.2c7.9-6.4,12.8-15.7,13.5-25.8
	c0.1-1-0.2-1.1-1.1-1.1c-3.5,0-7,0-10.5,0c-0.7,0-1-0.2-1-0.9c0.1-1.1,0-2.3,0-3.4c-0.1-2.3-2.1-4.1-4.4-4c-2.2,0.1-3.9,1.8-4,4
	c-0.1,1.1-0.1,2.1,0,3.2c0.1,0.9-0.2,1.2-1.1,1.2c-3.5-0.1-6.9,0-10.4,0c-0.9,0-1.2,0.2-1.2,1.1c0.1,3.5,0,7.1,0,10.7
	c0,0.7-0.1,0.9-0.9,0.9c-1.1-0.1-2.3,0-3.4,0c-2.3,0.1-4.1,2.1-4,4.4c0.1,2.2,1.8,3.9,4,4c1,0.1,2,0.1,3,0c1-0.1,1.3,0.2,1.2,1.2
	C430.9,80.5,430.9,83.7,430.9,86.8L430.9,86.8z M426.7,22.5c0-1.4,0-2.8,0-4.2c0-0.8-0.2-1.1-1.1-1.1c-6.4-0.1-12.8,1.6-18.4,4.8
	c-10.7,6.3-16.8,15.6-18.3,27.9c-0.1,0.9,0.2,1.1,1,1.1c2.9,0,5.9,0,8.8,0c0.8,0.1,1.6,0.1,2.4-0.2c0.4-0.2,0.3-1.3,0.5-2
	c0-0.1,0.1-0.2,0.1-0.4c1.4-4.4,6.2-6.9,10.6-5.5c3.2,1,5.4,3.8,5.8,7.1c0.1,0.5-0.1,1,0.8,1c2.3-0.1,4.7,0,7,0
	c0.6,0,0.8-0.2,0.8-0.7c0-1.6,0-3.2,0-4.7c0-0.7-0.2-0.8-0.9-0.9c-4.6-0.5-8-4.6-7.5-9.2c0.4-4,3.6-7.2,7.6-7.5
	c0.8-0.1,0.8-0.4,0.8-1C426.7,25.4,426.7,23.9,426.7,22.5L426.7,22.5z M426.7,105.8h7c3.2,0,6.5,0,9.8,0c1.2,0.1,2.2-0.8,2.2-1.9
	c0,0,0-0.1,0-0.1c0-1.2-0.9-2.1-2.1-2.1c0,0-0.1,0-0.1,0c-0.2,0-0.4,0-0.6,0h-32.3c-0.3,0-0.7,0-1,0c-1.1,0.2-1.9,1.3-1.7,2.4
	c0.1,0.7,0.6,1.3,1.3,1.6c0.5,0.2,0.9,0.2,1.4,0.2L426.7,105.8z M416.5,118.5c1,5.2,5.7,8.7,11,8.4c4.7-0.3,9.2-4.4,9.4-8.4H416.5z
	 M426.7,114.2h12.1c1.6,0,2.6-0.8,2.6-2.1s-1-2.1-2.6-2.1h-24.2c-1.7,0-2.6,0.7-2.7,2s1,2.2,2.7,2.2L426.7,114.2z"/>
<path class="st0" d="M483.2,0.3c-4.7,0-9.5,0-14.2,0c-4.9,0-9.9,0-14.8,0c-0.1,0-0.1,0-0.2,0c-3.5,0.1-6.3,2.9-6.2,6.4
	c0,1.1-0.1,2.2,0,3.2c0,0.7-0.1,0.9-0.9,1c-4,0.4-7.1,3.5-7.5,7.5c-0.5,4.6,2.9,8.8,7.5,9.2c0.8,0.1,0.9,0.3,0.9,1
	c0,2.8,0.1,5.6,0,8.4c0,1,0.3,1.2,1.2,1.2c3.9,0,7.8,0,11.7,0c1.3,0,2.9,0.4,3.7-0.2c0.8-0.6,0.2-2.4,0.2-3.6c0-0.1,0-0.3,0-0.4
	c0.1-2.2,1.8-3.9,4-4c2.3-0.1,4.3,1.7,4.4,4c0,1.1,0.1,2.2,0,3.3c-0.1,0.8,0.2,1,1,1c3,0,6.1,0,9.1,0c4.1,0,6.8-2.6,6.8-6.7
	c0-8.2,0-16.3,0-24.5C490,3,487.3,0.3,483.2,0.3z M460.4,33.9c0.1-0.4,0.2-0.7,0.3-1.1c0,0.2-0.1,0.4-0.1,0.6
	C460.5,33.6,460.4,33.8,460.4,33.9z"/>
<g>
	<path d="M309.8,140.2h7.5c2.1,0,3.7,0.5,4.9,1.6s1.8,2.5,1.8,4.3c0,1.1-0.3,2.1-0.9,2.9c-0.6,0.8-1.4,1.4-2.3,1.8
		c1.2,0.3,2.1,0.9,2.8,1.9c0.7,0.9,1.1,2.1,1.1,3.3c0,1.8-0.6,3.2-1.9,4.3c-1.3,1.1-2.9,1.7-4.9,1.7h-8.1V140.2z M313.5,149.4h3.4
		c1.1,0,1.9-0.3,2.5-0.8c0.6-0.6,0.9-1.3,0.9-2.2c0-0.9-0.3-1.7-0.9-2.2c-0.6-0.5-1.5-0.8-2.6-0.8h-3.3V149.4z M313.5,158.9h3.8
		c1.1,0,2-0.3,2.7-0.8c0.7-0.6,1-1.3,1-2.3c0-1-0.3-1.7-0.9-2.3c-0.6-0.6-1.5-0.9-2.6-0.9h-3.9V158.9z"/>
	<path d="M338.6,156.8l3,1c-0.4,1.4-1.2,2.5-2.4,3.4c-1.2,0.9-2.6,1.3-4.4,1.3c-2.1,0-3.9-0.7-5.4-2.2c-1.5-1.5-2.2-3.4-2.2-5.9
		c0-2.3,0.7-4.2,2.2-5.7c1.4-1.5,3.2-2.2,5.1-2.2c2.3,0,4.1,0.7,5.4,2.1c1.3,1.4,1.9,3.3,1.9,5.7c0,0.6,0,1-0.1,1.1h-11
		c0,1.1,0.5,2.1,1.2,2.8c0.8,0.7,1.7,1.1,2.8,1.1C336.8,159.4,338.1,158.5,338.6,156.8z M330.9,152.9h7.4c0-0.9-0.4-1.7-1-2.4
		c-0.6-0.6-1.5-1-2.7-1c-1.1,0-1.9,0.3-2.6,1C331.3,151.2,330.9,152,330.9,152.9z"/>
	<path d="M349.8,142.4v4.6h3.1v3.2h-3.1v7c0,0.7,0.2,1.1,0.5,1.4c0.3,0.3,0.8,0.4,1.4,0.4c0.4,0,0.8,0,1.2-0.1v3
		c-0.5,0.2-1.3,0.3-2.2,0.3c-1.4,0-2.5-0.4-3.3-1.2c-0.8-0.8-1.2-1.9-1.2-3.3v-7.5h-2.8V147h0.8c0.8,0,1.3-0.2,1.7-0.6
		s0.6-1,0.6-1.7v-2.2H349.8z"/>
	<path d="M361,142.4v4.6h3.1v3.2H361v7c0,0.7,0.2,1.1,0.5,1.4c0.3,0.3,0.8,0.4,1.4,0.4c0.4,0,0.8,0,1.2-0.1v3
		c-0.5,0.2-1.3,0.3-2.2,0.3c-1.4,0-2.5-0.4-3.3-1.2c-0.8-0.8-1.2-1.9-1.2-3.3v-7.5h-2.8V147h0.8c0.8,0,1.3-0.2,1.7-0.6
		s0.6-1,0.6-1.7v-2.2H361z"/>
	<path d="M377.9,156.8l3,1c-0.4,1.4-1.2,2.5-2.4,3.4c-1.2,0.9-2.6,1.3-4.4,1.3c-2.1,0-3.9-0.7-5.4-2.2c-1.5-1.5-2.2-3.4-2.2-5.9
		c0-2.3,0.7-4.2,2.2-5.7c1.4-1.5,3.2-2.2,5.1-2.2c2.3,0,4.1,0.7,5.4,2.1c1.3,1.4,1.9,3.3,1.9,5.7c0,0.6,0,1-0.1,1.1h-11
		c0,1.1,0.5,2.1,1.2,2.8c0.8,0.7,1.7,1.1,2.8,1.1C376.1,159.4,377.3,158.5,377.9,156.8z M370.2,152.9h7.4c0-0.9-0.4-1.7-1-2.4
		c-0.6-0.6-1.5-1-2.7-1c-1.1,0-1.9,0.3-2.6,1C370.6,151.2,370.2,152,370.2,152.9z"/>
	<path d="M393.3,146.9v3.6c-0.4-0.1-0.8-0.1-1.2-0.1c-2.7,0-4,1.5-4,4.4v7.1h-3.6v-15h3.5v2.4c0.3-0.8,0.9-1.4,1.7-1.9
		c0.8-0.5,1.7-0.7,2.6-0.7C392.7,146.8,393,146.9,393.3,146.9z"/>
	<path d="M413.9,162.5c-3.1,0-5.7-1-7.8-3.1c-2.1-2.1-3.2-4.8-3.2-8.3c0-3.4,1.1-6.2,3.3-8.3c2.2-2.1,4.8-3.1,7.7-3.1
		c2.6,0,4.8,0.7,6.5,2c1.7,1.3,2.8,3,3.3,5.1l-3.5,1.2c-0.3-1.4-1.1-2.6-2.1-3.5c-1.1-0.9-2.5-1.3-4.2-1.3c-2,0-3.6,0.7-5.1,2.1
		c-1.4,1.4-2.1,3.3-2.1,5.8c0,2.4,0.7,4.4,2.1,5.7c1.4,1.4,3.1,2.1,5.1,2.1c1.7,0,3.1-0.5,4.2-1.4c1.1-0.9,1.9-2.1,2.3-3.4l3.4,1.1
		c-0.5,2-1.7,3.7-3.4,5.1C418.7,161.8,416.5,162.5,413.9,162.5z"/>
	<path d="M433.3,146.6c2.3,0,4.1,0.8,5.6,2.2c1.5,1.5,2.2,3.4,2.2,5.7s-0.7,4.2-2.2,5.7c-1.5,1.5-3.3,2.3-5.6,2.3
		c-2.2,0-4.1-0.8-5.6-2.3c-1.5-1.5-2.2-3.4-2.2-5.7s0.7-4.2,2.2-5.7S431,146.6,433.3,146.6z M430.3,158c0.8,0.9,1.8,1.3,3,1.3
		c1.2,0,2.2-0.4,3-1.3s1.2-2,1.2-3.5c0-1.5-0.4-2.6-1.2-3.5c-0.8-0.8-1.8-1.2-3-1.2c-1.2,0-2.2,0.4-3,1.2c-0.8,0.8-1.2,2-1.2,3.5
		S429.5,157.1,430.3,158z"/>
	<path d="M448.1,162h-3.5v-15h3.4v1.9c0.4-0.7,1-1.3,1.9-1.7c0.8-0.4,1.7-0.6,2.6-0.6c1,0,1.9,0.2,2.7,0.7c0.8,0.5,1.4,1.1,1.8,2
		c1-1.8,2.7-2.6,4.9-2.6c1.5,0,2.7,0.5,3.8,1.4c1,1,1.5,2.4,1.5,4.3v9.7h-3.4v-9.1c0-0.9-0.2-1.7-0.7-2.2c-0.5-0.6-1.2-0.8-2.2-0.8
		c-0.9,0-1.7,0.3-2.2,1s-0.9,1.4-0.9,2.4v8.9h-3.5v-9.1c0-0.9-0.2-1.7-0.7-2.2c-0.5-0.6-1.2-0.8-2.2-0.8c-0.9,0-1.7,0.3-2.3,0.9
		c-0.6,0.6-0.8,1.4-0.8,2.4V162z"/>
	<path d="M474.9,162h-3.5v-15h3.4v1.9c0.4-0.7,1-1.3,1.9-1.7c0.8-0.4,1.7-0.6,2.6-0.6c1,0,1.9,0.2,2.7,0.7c0.8,0.5,1.4,1.1,1.8,2
		c1-1.8,2.7-2.6,4.9-2.6c1.5,0,2.7,0.5,3.8,1.4c1,1,1.5,2.4,1.5,4.3v9.7h-3.4v-9.1c0-0.9-0.2-1.7-0.7-2.2c-0.5-0.6-1.2-0.8-2.2-0.8
		c-0.9,0-1.7,0.3-2.2,1s-0.9,1.4-0.9,2.4v8.9h-3.5v-9.1c0-0.9-0.2-1.7-0.7-2.2c-0.5-0.6-1.2-0.8-2.2-0.8c-0.9,0-1.7,0.3-2.3,0.9
		c-0.6,0.6-0.8,1.4-0.8,2.4V162z"/>
	<path d="M507.8,160.4c-0.3,0.7-0.9,1.2-1.7,1.5c-0.8,0.4-1.6,0.6-2.5,0.6c-1.7,0-3.1-0.6-4.1-1.7s-1.5-2.6-1.5-4.3V147h3.6v8.8
		c0,1,0.2,1.8,0.7,2.5c0.5,0.6,1.3,1,2.3,1c1,0,1.8-0.3,2.3-0.9s0.8-1.4,0.8-2.4V147h3.6v12.3c0,0.9,0.1,1.8,0.2,2.7H508
		C507.9,161.6,507.8,161,507.8,160.4z"/>
	<path d="M519.4,153.4v8.7h-3.6v-15h3.5v2c0.5-0.8,1.1-1.4,1.9-1.8c0.8-0.4,1.6-0.6,2.5-0.6c1.8,0,3.1,0.6,4,1.7
		c0.9,1.1,1.4,2.5,1.4,4.3v9.5h-3.6v-8.9c0-1-0.2-1.8-0.7-2.4c-0.5-0.6-1.3-0.9-2.3-0.9c-1,0-1.8,0.3-2.3,1S519.4,152.3,519.4,153.4
		z"/>
	<path d="M533.6,143.4c-0.5-0.5-0.7-1-0.7-1.6s0.2-1.2,0.7-1.6c0.5-0.5,1-0.7,1.6-0.7c0.7,0,1.2,0.2,1.7,0.7c0.5,0.5,0.7,1,0.7,1.7
		c0,0.6-0.2,1.2-0.7,1.6c-0.5,0.5-1,0.7-1.7,0.7C534.6,144.1,534.1,143.8,533.6,143.4z M537.1,162h-3.5v-15h3.5V162z"/>
	<path d="M548.2,149.9c-1.1,0-2.1,0.4-2.9,1.2c-0.8,0.8-1.2,2-1.2,3.4c0,1.5,0.4,2.6,1.2,3.5c0.8,0.8,1.8,1.3,3,1.3
		c1,0,1.9-0.3,2.5-0.8c0.6-0.6,1-1.2,1.2-1.9l3.1,1.1c-0.4,1.3-1.2,2.5-2.4,3.5s-2.7,1.4-4.5,1.4c-2.2,0-4-0.8-5.5-2.3
		c-1.5-1.5-2.2-3.4-2.2-5.7c0-2.3,0.7-4.2,2.2-5.7s3.3-2.2,5.5-2.2c1.9,0,3.4,0.5,4.6,1.4c1.2,1,1.9,2.1,2.3,3.5l-3.2,1.2
		c-0.2-0.8-0.6-1.4-1.2-2S549.3,149.9,548.2,149.9z"/>
	<path d="M557.3,158c0-1.3,0.4-2.3,1.2-3.1c0.8-0.8,1.9-1.3,3.3-1.5l3.9-0.6c0.7-0.1,1.1-0.5,1.1-1.1c0-0.7-0.2-1.2-0.7-1.6
		c-0.5-0.4-1.2-0.6-2.1-0.6c-0.9,0-1.6,0.3-2.2,0.8c-0.5,0.5-0.8,1.2-0.9,2l-3.3-0.7c0.1-1.4,0.8-2.5,1.9-3.5c1.1-1,2.6-1.4,4.4-1.4
		c2.2,0,3.8,0.5,4.8,1.6c1,1,1.6,2.4,1.6,4v7.5c0,1,0.1,1.8,0.2,2.4h-3.3c-0.1-0.3-0.2-0.9-0.2-1.9c-1,1.6-2.5,2.4-4.6,2.4
		c-1.5,0-2.7-0.4-3.7-1.3C557.8,160.2,557.3,159.2,557.3,158z M563.1,159.7c1.1,0,2-0.3,2.7-0.9c0.7-0.6,1-1.6,1-3v-0.7l-3.9,0.6
		c-1.3,0.2-2,0.9-2,2c0,0.5,0.2,1,0.6,1.4C561.9,159.5,562.4,159.7,563.1,159.7z"/>
	<path d="M579.1,142.4v4.6h3.1v3.2h-3.1v7c0,0.7,0.2,1.1,0.5,1.4c0.3,0.3,0.8,0.4,1.4,0.4c0.4,0,0.8,0,1.2-0.1v3
		c-0.5,0.2-1.3,0.3-2.2,0.3c-1.4,0-2.5-0.4-3.3-1.2c-0.8-0.8-1.2-1.9-1.2-3.3v-7.5h-2.8V147h0.8c0.8,0,1.3-0.2,1.7-0.6
		c0.4-0.4,0.6-1,0.6-1.7v-2.2H579.1z"/>
	<path d="M586,143.4c-0.5-0.5-0.7-1-0.7-1.6s0.2-1.2,0.7-1.6c0.5-0.5,1-0.7,1.6-0.7c0.7,0,1.2,0.2,1.7,0.7c0.5,0.5,0.7,1,0.7,1.7
		c0,0.6-0.2,1.2-0.7,1.6c-0.5,0.5-1,0.7-1.7,0.7C587,144.1,586.5,143.8,586,143.4z M589.4,162h-3.5v-15h3.5V162z"/>
	<path d="M600.6,146.6c2.3,0,4.1,0.8,5.6,2.2s2.2,3.4,2.2,5.7s-0.7,4.2-2.2,5.7c-1.5,1.5-3.3,2.3-5.6,2.3c-2.2,0-4.1-0.8-5.6-2.3
		c-1.5-1.5-2.2-3.4-2.2-5.7s0.7-4.2,2.2-5.7S598.4,146.6,600.6,146.6z M597.7,158c0.8,0.9,1.8,1.3,3,1.3c1.2,0,2.2-0.4,3-1.3
		s1.2-2,1.2-3.5c0-1.5-0.4-2.6-1.2-3.5c-0.8-0.8-1.8-1.2-3-1.2c-1.2,0-2.2,0.4-3,1.2c-0.8,0.8-1.2,2-1.2,3.5S596.9,157.1,597.7,158z
		"/>
	<path d="M615.5,153.4v8.7h-3.6v-15h3.5v2c0.5-0.8,1.1-1.4,1.9-1.8c0.8-0.4,1.6-0.6,2.5-0.6c1.8,0,3.1,0.6,4,1.7
		c0.9,1.1,1.4,2.5,1.4,4.3v9.5h-3.6v-8.9c0-1-0.2-1.8-0.7-2.4c-0.5-0.6-1.3-0.9-2.3-0.9c-1,0-1.8,0.3-2.3,1S615.5,152.3,615.5,153.4
		z"/>
</g>
</svg>
